<?xml version="1.0" encoding="utf-8"?>
<!-- Generator: Adobe Illustrator 24.2.1, SVG Export Plug-In . SVG Version: 6.00 Build 0)  -->
<svg version="1.1" id="Layer_1" xmlns="http://www.w3.org/2000/svg" xmlns:xlink="http://www.w3.org/1999/xlink" x="0px" y="0px"
	 viewBox="0 0 700 456.1" style="enable-background:new 0 0 700 456.1;" xml:space="preserve">
<style type="text/css">
	.st0{opacity:0.83;fill:url(#SVGID_1_);stroke:#D1D3D4;stroke-width:3;stroke-miterlimit:10;enable-background:new    ;}
	.st1{opacity:0.83;fill:url(#SVGID_2_);stroke:#D1D3D4;stroke-width:3;stroke-miterlimit:10;enable-background:new    ;}
	.st2{opacity:0.83;fill:url(#SVGID_3_);stroke:#D1D3D4;stroke-width:3;stroke-miterlimit:10;enable-background:new    ;}
	.st3{fill:#231F20;}
	.st4{font-family:'Europa-Bold';}
	.st5{font-size:104.75px;}
	.st6{letter-spacing:20;}
	.st7{font-family:'Europa-Regular';}
	.st8{font-size:34.09px;}
	.st9{letter-spacing:1;}
</style>
<linearGradient id="SVGID_1_" gradientUnits="userSpaceOnUse" x1="242.6087" y1="270.7122" x2="379.3187" y2="352.8922" gradientTransform="matrix(1 0 0 -1 0 458)">
	<stop  offset="0" style="stop-color:#45C0DD"/>
	<stop  offset="0.57" style="stop-color:#918CE3"/>
	<stop  offset="1" style="stop-color:#C867E8"/>
</linearGradient>
<polygon class="st0" points="221.4,106 221.4,198.1 301.2,244.2 381,198.1 381,106 301.2,60 "/>
<linearGradient id="SVGID_2_" gradientUnits="userSpaceOnUse" x1="-2682.9883" y1="887.617" x2="-2546.2783" y2="969.797" gradientTransform="matrix(-1 0 0 1 -2238.02 -623.8199)">
	<stop  offset="0" style="stop-color:#1E871E"/>
	<stop  offset="0.5" style="stop-color:#58BD54"/>
	<stop  offset="1" style="stop-color:#8EEF86"/>
</linearGradient>
<polygon class="st1" points="466.1,345.1 466.1,253 386.4,206.9 306.6,253 306.6,345.1 386.4,391.1 "/>
<linearGradient id="SVGID_3_" gradientUnits="userSpaceOnUse" x1="157.9302" y1="123.6597" x2="294.3902" y2="206.2497" gradientTransform="matrix(1 0 0 -1 0 458)">
	<stop  offset="0" style="stop-color:#EFE930"/>
	<stop  offset="0.28" style="stop-color:#F4B328"/>
	<stop  offset="0.62" style="stop-color:#FA771F"/>
	<stop  offset="0.87" style="stop-color:#FE5119"/>
	<stop  offset="1" style="stop-color:#FF4317"/>
</linearGradient>
<polygon class="st2" points="136.6,253 136.6,345.1 216.3,391.1 296.1,345.1 296.1,253 216.3,206.9 "/>
<text transform="matrix(1 0 0 1 79.33 282.65)" class="st3 st4 st5 st6">DICOM</text>
<g id="AR_Visualizer">
	<text transform="matrix(1 0 0 1 415.6 318.29)" class="st3 st7 st8 st9">AR </text>
	<text transform="matrix(1 0 0 1 471 318.29)" class="st3 st7 st8 st9">V</text>
	<text transform="matrix(1 0 0 1 492.41 318.29)" class="st3 st7 st8 st9">isualizer</text>
</g>
</svg>
