<?xml version="1.0" encoding="utf-8"?>
<!-- Generator: Adobe Illustrator 24.2.1, SVG Export Plug-In . SVG Version: 6.00 Build 0)  -->
<svg version="1.1" id="Layer_1" xmlns="http://www.w3.org/2000/svg" xmlns:xlink="http://www.w3.org/1999/xlink" x="0px" y="0px"
	 viewBox="0 0 443.5 77" style="enable-background:new 0 0 443.5 77;" xml:space="preserve">
<style type="text/css">
	.st0{fill:#FFFFFF;}
	.st1{fill:#04522F;}
	.st2{fill:#F37422;}
	.st3{fill:none;stroke:#000000;stroke-width:2;}
</style>
<g>
	<path d="M127,11.8h7v0.8h-1.2c-0.5,0-0.9,0.1-1,0.2c-0.1,0.1-0.2,0.4-0.2,0.8v11.5c0,0.5,0.1,0.7,0.2,0.9c0.2,0.2,0.5,0.2,0.9,0.2
		h1.3V27h-7v-0.8h1.3c0.5,0,0.8-0.1,0.9-0.2s0.2-0.4,0.2-0.9V13.7c0-0.4-0.1-0.7-0.2-0.8c-0.2-0.2-0.5-0.2-1.1-0.2H127V11.8z"/>
	<path d="M135.2,11.8h3.6l9.1,11.9v-8.6c0-0.9-0.2-1.5-0.6-1.9c-0.4-0.4-0.9-0.6-1.6-0.6v-0.8h5.3v0.8c-0.5,0-0.9,0.1-1.2,0.2
		c-0.3,0.2-0.5,0.4-0.7,0.8c-0.2,0.4-0.3,0.8-0.3,1.3v12h-1l-9.5-12.4v9.2c0,0.8,0.2,1.4,0.6,1.9c0.4,0.4,1.1,0.6,1.9,0.6V27H135
		v-0.8c0.7,0,1.3-0.3,1.7-0.7c0.4-0.4,0.6-1,0.6-1.6V13.6l-0.2-0.2c-0.3-0.4-0.6-0.6-0.7-0.7c-0.2-0.1-0.5-0.1-0.8-0.1h-0.7v-0.8
		H135.2z"/>
	<path d="M152.3,11.8h12.3l0.2,5.2h-0.7c-0.3-1.8-0.8-3-1.3-3.5c-0.6-0.6-1.6-1-2.8-1h-2.4c-0.2,0-0.4,0.1-0.5,0.2
		c-0.1,0.1-0.2,0.3-0.2,0.5v5.5h1.3c0.7,0,1.3-0.2,1.7-0.7s0.7-1.2,0.7-2.2h0.7v6.8h-0.7c0-1.1-0.3-1.9-0.7-2.4s-1-0.7-1.7-0.7h-1.3
		v5.8c0,0.3,0.1,0.6,0.2,0.7c0.2,0.1,0.4,0.2,0.9,0.2h1.6V27h-7.3v-0.8h1.6c0.3,0,0.5-0.1,0.7-0.2c0.1-0.1,0.2-0.3,0.2-0.6v-12
		c0-0.3-0.1-0.5-0.2-0.6s-0.4-0.2-0.7-0.2h-1.5v-0.8H152.3z"/>
	<path d="M172.9,11.5c1.3,0,2.5,0.3,3.6,1s2,1.6,2.6,2.8s0.9,2.6,0.9,4.1s-0.3,2.9-1,4.1s-1.5,2.2-2.6,2.8c-1.1,0.7-2.3,1-3.5,1
		s-2.4-0.3-3.4-1c-1.1-0.7-1.9-1.6-2.6-2.9c-0.6-1.2-1-2.6-1-4.1s0.3-2.8,0.9-4c0.6-1.2,1.5-2.1,2.6-2.8S171.7,11.5,172.9,11.5z
		 M173,12.3c-1.3,0-2.4,0.6-3.2,1.7s-1.2,2.9-1.2,5.4c0,2.7,0.4,4.6,1.3,5.6s1.9,1.6,3.1,1.6c0.9,0,1.6-0.2,2.3-0.7s1.2-1.2,1.6-2.2
		c0.4-1,0.6-2.4,0.6-4c0-1.8-0.2-3.2-0.6-4.3c-0.4-1-0.9-1.8-1.6-2.3S173.9,12.3,173,12.3z"/>
	<path d="M180.5,11.8h7.8c1.5,0,2.7,0.3,3.5,1s1.3,1.6,1.3,2.7c0,0.7-0.2,1.3-0.5,1.8s-0.8,0.9-1.4,1.3c-0.6,0.3-1.6,0.5-2.9,0.7
		c1,0.3,1.6,0.5,2,0.8s0.7,0.6,0.9,1s0.5,1.2,0.8,2.5c0.2,0.9,0.4,1.5,0.7,1.8c0.2,0.3,0.4,0.4,0.6,0.4c0.2,0,0.4-0.2,0.6-0.5
		s0.3-0.9,0.3-1.6h0.7c-0.1,2.3-1,3.5-2.6,3.5c-0.5,0-0.9-0.1-1.3-0.4c-0.4-0.3-0.6-0.6-0.8-1.1c-0.1-0.4-0.3-1.3-0.5-2.9
		c-0.1-0.9-0.3-1.6-0.5-1.9s-0.6-0.7-1-0.9s-1-0.3-1.7-0.3h-1.2v6c0,0.3,0.1,0.4,0.2,0.5c0.2,0.1,0.4,0.2,0.8,0.2h1.5V27h-7v-0.8
		h1.5c0.3,0,0.6-0.1,0.7-0.2c0.2-0.1,0.2-0.3,0.2-0.5V13.4c0-0.3-0.1-0.5-0.2-0.6s-0.4-0.2-0.7-0.2h-1.5v-0.8H180.5z M185.1,18.8
		h1.8c1.2,0,2.1-0.2,2.8-0.7s1-1.3,1-2.4c0-0.8-0.1-1.4-0.4-1.9c-0.3-0.5-0.6-0.8-1-1s-1.2-0.3-2.5-0.3c-0.8,0-1.3,0.1-1.5,0.2
		c-0.2,0.1-0.3,0.3-0.3,0.6L185.1,18.8L185.1,18.8z"/>
	<path d="M195.3,11.8h5l4.5,12l4.2-12h5.2v0.8h-1.3c-0.4,0-0.7,0.1-0.9,0.2c-0.2,0.1-0.2,0.4-0.2,0.7v12c0,0.2,0.1,0.4,0.3,0.6
		s0.5,0.2,1,0.2h1.2V27h-6.9v-0.8h1.3c0.4,0,0.6-0.1,0.8-0.2s0.3-0.3,0.3-0.5V12.6l-5,14.4h-0.7l-5.4-14.3v11c0,0.7,0.1,1.1,0.2,1.5
		c0.2,0.3,0.4,0.6,0.7,0.7c0.3,0.2,0.8,0.3,1.5,0.3V27h-5.7v-0.8c0.9-0.1,1.6-0.3,1.9-0.6s0.5-0.9,0.5-1.8V13.4
		c0-0.3-0.1-0.4-0.2-0.6s-0.5-0.2-0.9-0.2h-1.3v-0.8H195.3z"/>
	<path d="M222.4,11.5h0.7l5.4,13.9c0.2,0.6,0.7,0.8,1.3,0.8h0.5V27h-6v-0.8h0.5c0.6,0,1.1-0.1,1.3-0.2s0.3-0.2,0.3-0.4
		c0-0.1,0-0.2-0.1-0.4L225,22h-6l-0.7,1.8c-0.2,0.5-0.3,0.9-0.3,1.2c0,0.3,0.2,0.6,0.5,0.9s0.8,0.4,1.4,0.4h0.5V27h-5.5v-0.8
		c0.6,0,1.1-0.1,1.4-0.4c0.3-0.3,0.7-0.7,0.9-1.5L222.4,11.5z M222.1,14.4l-2.7,6.8h5.4L222.1,14.4z"/>
	<path d="M229.9,11.8h12.3l0.3,5.7h-0.7c-0.5-3.4-1.7-5.1-3.7-5.1c-0.4,0-0.7,0.1-0.8,0.2c-0.1,0.1-0.2,0.4-0.2,0.7v12.1
		c0,0.2,0.1,0.4,0.2,0.5s0.4,0.2,0.7,0.2h1.5V27h-7v-0.8h1.7c0.2,0,0.4-0.1,0.5-0.2s0.2-0.3,0.2-0.5V13.3c0-0.3-0.1-0.5-0.2-0.6
		c-0.2-0.1-0.4-0.2-0.8-0.2c-1,0-1.8,0.5-2.5,1.4c-0.5,0.8-0.9,2-1.2,3.7h-0.7L229.9,11.8z"/>
	<path d="M243.4,11.8h7v0.8h-1.2c-0.5,0-0.9,0.1-1,0.2c-0.1,0.1-0.2,0.4-0.2,0.8v11.5c0,0.5,0.1,0.7,0.2,0.9
		c0.2,0.2,0.5,0.2,0.9,0.2h1.3V27h-7v-0.8h1.3c0.5,0,0.8-0.1,0.9-0.2s0.2-0.4,0.2-0.9V13.7c0-0.4-0.1-0.7-0.2-0.8
		c-0.2-0.2-0.5-0.2-1.1-0.2h-1.2v-0.9H243.4z"/>
	<path d="M257.9,11.5c1.3,0,2.5,0.3,3.6,1s2,1.6,2.6,2.8s0.9,2.6,0.9,4.1s-0.3,2.9-1,4.1s-1.5,2.2-2.6,2.8c-1.1,0.7-2.3,1-3.5,1
		s-2.4-0.3-3.4-1c-1.1-0.7-1.9-1.6-2.6-2.9c-0.6-1.2-1-2.6-1-4.1s0.3-2.8,0.9-4c0.6-1.2,1.5-2.1,2.6-2.8
		C255.6,11.9,256.7,11.5,257.9,11.5z M258.1,12.3c-1.3,0-2.4,0.6-3.2,1.7s-1.2,2.9-1.2,5.4c0,2.7,0.4,4.6,1.3,5.6s1.9,1.6,3.1,1.6
		c0.9,0,1.6-0.2,2.3-0.7c0.7-0.5,1.2-1.2,1.6-2.2s0.6-2.4,0.6-4c0-1.8-0.2-3.2-0.6-4.3c-0.4-1-0.9-1.8-1.6-2.3
		S258.9,12.3,258.1,12.3z"/>
	<path d="M265.7,11.8h3.6l9.1,11.9v-8.6c0-0.9-0.2-1.5-0.6-1.9s-0.9-0.6-1.6-0.6v-0.8h5.3v0.8c-0.5,0-0.9,0.1-1.2,0.2
		c-0.3,0.2-0.5,0.4-0.7,0.8s-0.3,0.8-0.3,1.3v12h-1L269,14.6v9.2c0,0.8,0.2,1.4,0.6,1.9c0.4,0.4,1.1,0.6,1.9,0.6V27h-5.8v-0.8
		c0.7,0,1.3-0.3,1.7-0.7c0.4-0.4,0.6-1,0.6-1.6V13.6l-0.2-0.2c-0.3-0.4-0.6-0.6-0.7-0.7c-0.2-0.1-0.5-0.1-0.8-0.1h-0.7v-0.8H265.7z"
		/>
	<path d="M287.5,11.8h12.3l0.3,5.7h-0.7c-0.5-3.4-1.7-5.1-3.7-5.1c-0.4,0-0.7,0.1-0.8,0.2c-0.1,0.1-0.2,0.4-0.2,0.7v12.1
		c0,0.2,0.1,0.4,0.2,0.5s0.4,0.2,0.7,0.2h1.5V27h-7v-0.8h1.7c0.2,0,0.4-0.1,0.5-0.2s0.2-0.3,0.2-0.5V13.3c0-0.3-0.1-0.5-0.2-0.6
		c-0.2-0.1-0.4-0.2-0.8-0.2c-1,0-1.8,0.5-2.5,1.4c-0.5,0.8-0.9,2-1.2,3.7h-0.7L287.5,11.8z"/>
	<path d="M301.4,11.8h12l0.3,5.1H313c-0.3-1.6-0.7-2.7-1.3-3.4c-0.6-0.6-1.4-1-2.3-1h-3c-0.2,0-0.4,0.1-0.5,0.2s-0.2,0.3-0.2,0.6
		v5.4h1.3c0.7,0,1.3-0.2,1.7-0.7c0.4-0.5,0.7-1.3,0.7-2.3h0.7v7h-0.7c0-1.2-0.3-2-0.7-2.5c-0.4-0.5-1-0.8-1.8-0.8h-1.2v6
		c0,0.2,0.1,0.4,0.2,0.5s0.4,0.2,0.7,0.2h2.3c2.5,0,4-1.6,4.4-4.9h0.7l-0.3,5.6h-12.5V26h1c0.4,0,0.7-0.1,0.9-0.2
		c0.2-0.1,0.2-0.3,0.2-0.6v-12c0-0.3-0.1-0.5-0.2-0.6s-0.4-0.2-0.7-0.2h-1.2v-0.6H301.4z"/>
	<path d="M326.6,13l0.7-1.5h0.6l0.3,6.1h-0.7c-0.5-1.7-1-3-1.7-3.8c-0.8-1-1.9-1.5-3-1.5c-1.3,0-2.3,0.6-3.1,1.7s-1.2,3.1-1.2,5.8
		c0,2.3,0.5,4,1.4,5.2c0.8,1,1.9,1.5,3.3,1.5c1.2,0,2.3-0.4,3.1-1.2c0.8-0.8,1.4-2,1.6-3.6h0.7c-0.2,1.8-0.8,3.2-1.9,4.2
		s-2.3,1.5-3.9,1.5c-1.3,0-2.4-0.3-3.5-1c-1.1-0.6-1.9-1.5-2.5-2.7s-0.9-2.5-0.9-3.9c0-1.5,0.3-2.9,1-4.3c0.7-1.3,1.5-2.3,2.5-3
		s2.1-1,3.3-1c0.7,0,1.3,0.1,1.9,0.3S325.8,12.5,326.6,13z"/>
	<path d="M329.7,11.8h6.5v0.8H335c-0.4,0-0.7,0.1-0.8,0.2s-0.2,0.5-0.2,1.1v4.7h6.9v-4.7c0-0.6-0.1-1-0.2-1.1s-0.4-0.2-0.8-0.2h-1.1
		v-0.8h6.4v0.8H344c-0.3,0-0.5,0-0.6,0.1s-0.2,0.2-0.3,0.4c0,0.1-0.1,0.4-0.1,0.9v10.9c0,0.5,0,0.8,0.1,1c0.2,0.2,0.5,0.3,1,0.3h1
		V27h-6.4v-0.8h1.1c0.4,0,0.7-0.1,0.9-0.4c0.1-0.1,0.1-0.5,0.1-1v-5.3H334v5.4c0,0.5,0,0.9,0.1,1c0.2,0.2,0.5,0.3,0.9,0.3h1.2V27
		h-6.5v-0.8h1.2c0.2,0,0.4,0,0.5-0.1s0.2-0.2,0.3-0.4c0-0.1,0.1-0.4,0.1-0.9v-11c0-0.6-0.1-0.9-0.2-1.1s-0.4-0.2-0.8-0.2h-1.1V11.8z
		"/>
	<path d="M346.6,11.8h3.6l9.1,11.9v-8.6c0-0.9-0.2-1.5-0.6-1.9s-0.9-0.6-1.6-0.6v-0.8h5.3v0.8c-0.5,0-0.9,0.1-1.2,0.2
		c-0.3,0.2-0.5,0.4-0.7,0.8s-0.3,0.8-0.3,1.3v12h-1l-9.5-12.4v9.2c0,0.8,0.2,1.4,0.6,1.9c0.4,0.4,1.1,0.6,1.9,0.6V27h-5.8v-0.8
		c0.7,0,1.3-0.3,1.7-0.7c0.4-0.4,0.6-1,0.6-1.6V13.6l-0.2-0.2c-0.3-0.4-0.6-0.6-0.7-0.7c-0.2-0.1-0.5-0.1-0.8-0.1h-0.7v-0.8H346.6z"
		/>
	<path d="M369.8,11.5c1.3,0,2.5,0.3,3.6,1s2,1.6,2.6,2.8s0.9,2.6,0.9,4.1s-0.3,2.9-1,4.1c-0.6,1.2-1.5,2.2-2.6,2.8
		c-1.1,0.7-2.3,1-3.5,1s-2.4-0.3-3.4-1c-1.1-0.7-1.9-1.6-2.6-2.9c-0.6-1.2-1-2.6-1-4.1s0.3-2.8,0.9-4s1.5-2.1,2.6-2.8
		S368.7,11.5,369.8,11.5z M370,12.3c-1.3,0-2.4,0.6-3.2,1.7c-0.8,1.1-1.2,2.9-1.2,5.4c0,2.7,0.4,4.6,1.3,5.6s1.9,1.6,3.1,1.6
		c0.9,0,1.6-0.2,2.3-0.7s1.2-1.2,1.6-2.2s0.6-2.4,0.6-4c0-1.8-0.2-3.2-0.6-4.3c-0.4-1-0.9-1.8-1.6-2.3S370.9,12.3,370,12.3z"/>
	<path d="M377.6,11.8h7v0.8H383c-0.3,0-0.5,0.1-0.6,0.2c-0.1,0.1-0.2,0.4-0.2,0.7v12c0,0.3,0.1,0.5,0.2,0.6c0.2,0.1,0.5,0.2,1,0.2
		h2.1c1.1,0,2.1-0.4,2.8-1.1c0.7-0.8,1.2-2.1,1.6-3.9h0.7l-0.3,5.8h-12.6v-0.8h1.2c0.4,0,0.7-0.1,0.9-0.2c0.2-0.2,0.3-0.4,0.3-0.8
		V13.4c0-0.3-0.1-0.4-0.2-0.6c-0.1-0.1-0.4-0.2-0.6-0.2h-1.5v-0.8H377.6z"/>
	<path d="M398.6,11.5c1.3,0,2.5,0.3,3.6,1s2,1.6,2.6,2.8s0.9,2.6,0.9,4.1s-0.3,2.9-1,4.1c-0.6,1.2-1.5,2.2-2.6,2.8
		c-1.1,0.7-2.3,1-3.5,1s-2.4-0.3-3.4-1c-1.1-0.7-1.9-1.6-2.6-2.9c-0.6-1.2-1-2.6-1-4.1s0.3-2.8,0.9-4s1.5-2.1,2.6-2.8
		S397.5,11.5,398.6,11.5z M398.8,12.3c-1.3,0-2.4,0.6-3.2,1.7c-0.8,1.1-1.2,2.9-1.2,5.4c0,2.7,0.4,4.6,1.3,5.6s1.9,1.6,3.1,1.6
		c0.9,0,1.6-0.2,2.3-0.7s1.2-1.2,1.6-2.2s0.6-2.4,0.6-4c0-1.8-0.2-3.2-0.6-4.3c-0.4-1-0.9-1.8-1.6-2.3S399.6,12.3,398.8,12.3z"/>
	<path d="M418.1,13l0.8-1.5h0.7l0.4,6h-0.7c-0.5-1.7-1.1-3-1.8-3.8c-0.9-1-1.9-1.5-3.1-1.5c-0.9,0-1.7,0.2-2.4,0.7
		c-0.7,0.5-1.2,1.2-1.6,2.2s-0.6,2.4-0.6,4.2s0.2,3.1,0.6,4.1s0.9,1.7,1.5,2.2c0.7,0.5,1.4,0.7,2.3,0.7c1.2,0,2.1-0.3,2.8-1
		s1-1.5,1-2.6v-1.4c0-0.2-0.1-0.4-0.3-0.5s-0.5-0.2-0.9-0.2h-1.3v-0.7h6.4v0.7H421c-0.4,0-0.7,0.1-0.8,0.2c-0.2,0.1-0.2,0.3-0.2,0.6
		v5.8h-0.7c-0.2-0.9-0.5-1.8-0.8-2.6c-0.5,0.8-1.1,1.5-1.8,1.9c-0.7,0.4-1.5,0.6-2.4,0.6c-1.3,0-2.5-0.3-3.6-1s-2-1.6-2.6-2.8
		c-0.6-1.2-0.9-2.5-0.9-4s0.3-2.9,1-4.1s1.5-2.1,2.6-2.9c1.1-0.7,2.2-1.1,3.3-1.1c0.6,0,1.3,0.1,1.8,0.3
		C416.7,12.1,417.4,12.5,418.1,13z"/>
	<path d="M421.6,11.8h6.6v0.8h-0.7c-0.6,0-1,0-1.2,0.1s-0.3,0.2-0.3,0.4s0,0.3,0.1,0.5l3.8,6l2.8-5.1c0.1-0.2,0.2-0.5,0.2-0.7
		c0-0.4-0.1-0.6-0.3-0.9s-0.6-0.3-1-0.3h-0.7v-0.8h5.8v0.8c-0.7,0-1.2,0.1-1.6,0.3s-0.8,0.7-1.1,1.3l-3.5,6.4v4.8
		c0,0.3,0.1,0.4,0.2,0.5c0.2,0.1,0.5,0.2,0.9,0.2h1.3V27h-7v-0.8h1.4c0.4,0,0.6-0.1,0.8-0.2c0.2-0.1,0.2-0.3,0.2-0.6v-4.7l-4.7-7.3
		c-0.2-0.3-0.4-0.5-0.7-0.7c-0.3-0.1-0.7-0.2-1.4-0.2v-0.7H421.6z"/>
</g>
<g>
	<path d="M127.6,37.6h12.7V39h-2.2c-1,0-1.6,0.1-1.8,0.4c-0.3,0.2-0.4,0.8-0.4,1.5v20.8c0,0.8,0.1,1.3,0.3,1.6
		c0.3,0.3,0.8,0.4,1.6,0.4h2.4V65h-12.7v-1.4h2.4c0.8,0,1.4-0.1,1.6-0.4c0.2-0.2,0.4-0.8,0.4-1.6V40.9c0-0.8-0.1-1.3-0.3-1.5
		c-0.3-0.3-1-0.4-1.9-0.4h-2.2L127.6,37.6L127.6,37.6z"/>
	<path d="M142.4,37.6h6.5l16.6,21.6V43.5c0-1.6-0.4-2.7-1.1-3.5c-0.7-0.7-1.6-1.1-2.9-1.1v-1.4h9.6V39c-1,0-1.7,0.1-2.2,0.4
		c-0.5,0.3-0.9,0.8-1.3,1.5c-0.4,0.7-0.5,1.5-0.5,2.4V65h-1.7l-17.1-22.4v16.6c0,1.5,0.4,2.6,1.1,3.4c0.8,0.7,1.9,1.1,3.5,1.1V65
		h-10.5v-1.4c1.3,0,2.4-0.5,3.1-1.3c0.8-0.8,1.2-1.8,1.2-3V40.8l-0.3-0.4c-0.6-0.7-1.1-1.1-1.3-1.2c-0.4-0.2-0.8-0.3-1.4-0.3h-1.2
		v-1.3H142.4z"/>
	<path d="M172.8,37.6h6.5l16.6,21.6V43.5c0-1.6-0.4-2.7-1.1-3.5c-0.7-0.7-1.6-1.1-2.9-1.1v-1.4h9.6V39c-1,0-1.7,0.1-2.2,0.4
		c-0.5,0.3-0.9,0.8-1.3,1.5c-0.4,0.7-0.5,1.5-0.5,2.4V65h-1.7l-17.1-22.4v16.6c0,1.5,0.4,2.6,1.1,3.4c0.8,0.7,1.9,1.1,3.5,1.1V65
		h-10.5v-1.4c1.3,0,2.4-0.5,3.1-1.3c0.8-0.8,1.2-1.8,1.2-3V40.8l-0.3-0.4c-0.6-0.7-1.1-1.1-1.3-1.2c-0.4-0.2-0.8-0.3-1.4-0.3h-1.2
		v-1.3H172.8z"/>
	<path d="M214.6,37c2.3,0,4.5,0.6,6.5,1.8s3.6,2.9,4.7,5.1c1.1,2.2,1.7,4.6,1.7,7.4s-0.6,5.2-1.7,7.4c-1.2,2.2-2.7,3.9-4.7,5.1
		c-2,1.2-4.1,1.8-6.4,1.8c-2.2,0-4.3-0.6-6.2-1.8s-3.5-2.9-4.6-5.2c-1.2-2.2-1.8-4.7-1.8-7.5c0-2.7,0.6-5.1,1.7-7.3
		c1.1-2.2,2.7-3.9,4.6-5.1C210.4,37.6,212.4,37,214.6,37z M214.9,38.4c-2.4,0-4.4,1-5.9,3s-2.2,5.3-2.2,9.8c0,4.9,0.8,8.3,2.3,10.2
		s3.4,2.8,5.7,2.8c1.6,0,3-0.4,4.2-1.3c1.2-0.9,2.2-2.2,2.9-4.1c0.7-1.9,1.1-4.3,1.1-7.3c0-3.3-0.3-5.9-1-7.7s-1.6-3.2-2.9-4.1
		C217.8,38.9,216.4,38.4,214.9,38.4z"/>
	<path d="M226.5,37.6H238V39h-2c-0.8,0-1.4,0.1-1.7,0.3s-0.4,0.5-0.4,0.8s0.1,0.6,0.3,1.1l0.1,0.4l7.2,18.4l6.4-17.6
		c0.1-0.3,0.2-0.8,0.2-1.3c0-0.7-0.2-1.2-0.6-1.6c-0.4-0.4-1-0.6-1.7-0.6H244v-1.4h10.1V39h-0.8c-0.6,0-1.2,0.3-1.8,0.9
		c-0.6,0.6-1.2,1.5-1.7,2.9l-8.5,23H240l-9.7-24.5c-0.3-0.8-0.7-1.4-1.2-1.7c-0.4-0.3-1-0.5-1.8-0.5h-0.9L226.5,37.6L226.5,37.6z"/>
	<path d="M262.1,37h1.2l9.8,25.1c0.4,1,1.2,1.5,2.4,1.5h0.9V65h-10.9v-1.4h0.9c1.1,0,1.9-0.1,2.4-0.4c0.3-0.2,0.5-0.4,0.5-0.8
		c0-0.2,0-0.4-0.1-0.7l-2.3-5.8H256l-1.3,3.3c-0.3,0.9-0.5,1.6-0.5,2.1c0,0.6,0.3,1.1,0.8,1.6c0.6,0.4,1.4,0.6,2.5,0.6h0.9V65h-9.9
		v-1.4c1.1,0,1.9-0.2,2.5-0.7s1.2-1.3,1.7-2.6L262.1,37z M261.5,42.3l-4.9,12.2h9.7L261.5,42.3z"/>
	<path d="M275.3,37.6h22.3l0.5,10.4h-1.3c-0.8-6.1-3-9.1-6.6-9.1c-0.7,0-1.2,0.1-1.5,0.4c-0.3,0.2-0.4,0.7-0.4,1.2v21.9
		c0,0.4,0.1,0.8,0.4,1s0.7,0.3,1.3,0.3h2.8V65h-12.7v-1.4h3.2c0.4,0,0.7-0.1,1-0.3c0.2-0.2,0.3-0.5,0.3-0.8V40.2
		c0-0.5-0.1-0.8-0.4-1.1s-0.7-0.4-1.4-0.4c-1.8,0-3.3,0.8-4.5,2.5c-1,1.4-1.7,3.6-2.1,6.6h-1.4L275.3,37.6z"/>
	<path d="M300.2,37.6H322l0.5,9.3h-1.2c-0.5-2.9-1.3-5-2.3-6.1c-1.1-1.2-2.5-1.7-4.2-1.7h-5.4c-0.4,0-0.8,0.1-1,0.4
		c-0.2,0.2-0.3,0.6-0.3,1.1v9.8h2.3c1.3,0,2.3-0.5,3.1-1.4s1.2-2.3,1.3-4.2h1.3v12.7h-1.3c-0.1-2.1-0.5-3.6-1.3-4.5
		s-1.9-1.4-3.2-1.4H308v10.9c0,0.4,0.1,0.7,0.4,0.9s0.7,0.3,1.3,0.3h4.2c4.6,0,7.3-2.9,8-8.8h1.3L322.8,65h-22.6v-1.4h1.9
		c0.7,0,1.2-0.1,1.5-0.4s0.4-0.6,0.4-1.1V40.4c0-0.5-0.1-0.8-0.4-1.1c-0.3-0.2-0.7-0.4-1.2-0.4h-2.2L300.2,37.6L300.2,37.6z"/>
</g>
<path class="st0" d="M66.3,0l0.1,28.7c0,1.8,0,7.4-14.1,7.5H51h-1.3c-14.1,0-14.1-5.6-14.1-7.5l0-28.7H16.2v33
	c0,9.1,25.6,9.8,33.4,9.8h1.2h0.3h1.2c7.8,0,33.4-0.7,33.4-9.8V0H66.3z"/>
<path class="st1" d="M67.8,28.7V1.4h16.5c0,0,0,30.5,0,31.6c0,6-16.4,8.4-32,8.4c0-0.8,0-2.6,0-3.8C60.1,37.6,67.8,35.9,67.8,28.7"
	/>
<path class="st2" d="M34.1,28.7V1.4H17.7c0,0,0,30.5,0,31.6c0,6,16.4,8.4,32,8.4c0-0.8,0-2.6,0-3.8C41.9,37.6,34.1,35.9,34.1,28.7"
	/>
<line class="st3" x1="1.2" y1="50.8" x2="101.2" y2="50.8"/>
<path class="st2" d="M18.7,73.3c0,2.1,0.5,2.8,2.6,2.8V77H15v-0.9c2.2,0,2.6-0.7,2.6-2.8v-9.9c0-0.9-0.3-1-1.2-1h-1.3v-1h5.5l4.2,12
	l4.1-12h5.3v1H33c-0.9,0-1.1,0.2-1.1,1V75c0,0.9,0.3,1,1.1,1h1.2v1h-7.1v-1h1.3c0.9,0,1.2-0.2,1.2-1V62.7L24.8,77H24l-5.2-14.4
	L18.7,73.3L18.7,73.3z"/>
<path class="st2" d="M35.9,76h1.2c0.9,0,1.2-0.2,1.2-1V63.3c0-0.8-0.3-1-1.2-1h-1.2v-1H43v1h-1.2c-0.9,0-1.2,0.2-1.2,1v11.6
	c0,0.8,0.3,1,1.2,1H43v1h-7.1V76z"/>
<path class="st2" d="M50.2,64.4l-2.5,6.3h5.1L50.2,64.4z M51.3,61l5.6,13.9c0.3,0.9,0.6,1.1,1.5,1.1c0.1,0,0.3,0,0.4,0v1h-6.5v-1
	h0.8c0.9,0,1.3-0.1,1.3-0.6c0-0.2-0.1-0.4-0.2-0.8l-1-2.7h-5.9l-0.7,1.7c-0.2,0.5-0.3,1-0.3,1.3c0,0.7,0.5,1.1,1.6,1.1h0.5v1h-5.6
	v-1H43c1.3,0,1.7-0.5,2.2-1.9L50.4,61H51.3z"/>
<path class="st2" d="M62.1,73.3c0,2.1,0.5,2.8,2.6,2.8V77h-6.3v-1c2.2,0,2.6-0.7,2.6-2.8v-9.9c0-0.9-0.3-1-1.2-1h-1.3v-1H64l4.2,12
	l4.1-12h5.3v1h-1.2c-0.9,0-1.1,0.2-1.1,1v11.6c0,0.9,0.3,1,1.1,1h1.2v1h-7.1v-1h1.3c0.9,0,1.2-0.2,1.2-1V62.7L68.2,77h-0.9
	l-5.2-14.4C62.1,62.6,62.1,73.3,62.1,73.3z"/>
<path class="st2" d="M79.3,76h1.2c0.9,0,1.2-0.2,1.2-1V63.3c0-0.8-0.3-1-1.2-1h-1.2v-1h7.1v1h-1.2c-0.9,0-1.2,0.2-1.2,1v11.6
	c0,0.8,0.3,1,1.2,1h1.2v1h-7.1V76z"/>
</svg>
